<svg xmlns="http://www.w3.org/2000/svg" width="128" height="128" viewBox="0 0 128 128">
  <title>COVID-19</title>
  <g>
    <path d="M115.4,57.709a6.28,6.28,0,0,0-5.313,2.931l-11.363-.629a34.785,34.785,0,0,0-7.353-17.743l7.593-8.482a6.291,6.291,0,1,0-4.752-4.752l-8.482,7.593a34.785,34.785,0,0,0-17.743-7.353L67.36,17.911a6.291,6.291,0,1,0-6.72,0l-.629,11.363a34.785,34.785,0,0,0-17.743,7.353l-8.482-7.593a6.291,6.291,0,1,0-4.752,4.752l7.593,8.482a34.785,34.785,0,0,0-7.353,17.743l-11.363.629a6.291,6.291,0,1,0,0,6.72l11.363.629a34.785,34.785,0,0,0,7.353,17.743l-7.593,8.482a6.291,6.291,0,1,0,4.752,4.752l8.482-7.593a34.785,34.785,0,0,0,17.743,7.353l.629,11.363a6.291,6.291,0,1,0,6.72,0l.629-11.363a34.785,34.785,0,0,0,17.743-7.353l8.482,7.593a6.291,6.291,0,1,0,4.752-4.752l-7.593-8.482a34.785,34.785,0,0,0,7.353-17.743l11.363-.629a6.289,6.289,0,1,0,5.313-9.651Z" fill="#f07281"/>
    <circle cx="53.416" cy="50.893" r="8.609" transform="translate(-20.341 52.677) rotate(-45)" fill="#eb5569"/>
    <path d="M58.181,78.471a6.464,6.464,0,1,1-6.464-6.464A6.464,6.464,0,0,1,58.181,78.471Z" fill="#eb5569"/>
    <circle cx="78.824" cy="66.232" r="10.631" transform="translate(-9.591 13.481) rotate(-9.217)" fill="#eb5569"/>
    <g>
      <path d="M64,123.443a8.037,8.037,0,0,1-5.16-14.2l-.5-8.973a36.532,36.532,0,0,1-15.985-6.625l-6.7,6a8.041,8.041,0,1,1-7.3-7.3l6-6.7a36.672,36.672,0,0,1-4.264-7.571,1.75,1.75,0,0,1,3.233-1.343A33.15,33.15,0,0,0,38,84.643a1.75,1.75,0,0,1-.066,2.255l-7.592,8.483a1.749,1.749,0,0,1-1.687.54,4.541,4.541,0,1,0,3.427,3.427,1.749,1.749,0,0,1,.54-1.687L41.1,90.069A1.749,1.749,0,0,1,43.357,90a33.058,33.058,0,0,0,16.851,6.984,1.75,1.75,0,0,1,1.55,1.642l.63,11.363a1.755,1.755,0,0,1-.811,1.575,4.542,4.542,0,1,0,4.846,0,1.755,1.755,0,0,1-.811-1.575l.63-11.363a1.75,1.75,0,0,1,1.55-1.642A33.058,33.058,0,0,0,84.643,90a1.75,1.75,0,0,1,2.255.066l8.483,7.592a1.749,1.749,0,0,1,.54,1.687,4.541,4.541,0,1,0,3.427-3.427,1.744,1.744,0,0,1-1.687-.54L90.069,86.9A1.75,1.75,0,0,1,90,84.643a33.058,33.058,0,0,0,6.984-16.851,1.75,1.75,0,0,1,1.642-1.55l11.363-.63a1.761,1.761,0,0,1,1.575.811,4.542,4.542,0,1,0,0-4.846,1.774,1.774,0,0,1-1.575.811l-11.363-.63a1.75,1.75,0,0,1-1.642-1.55A33.058,33.058,0,0,0,90,43.357a1.75,1.75,0,0,1,.066-2.255l7.592-8.483a1.743,1.743,0,0,1,1.687-.54,4.541,4.541,0,1,0-3.427-3.428,1.747,1.747,0,0,1-.54,1.687L86.9,37.93A1.748,1.748,0,0,1,84.643,38a33.058,33.058,0,0,0-16.851-6.984,1.75,1.75,0,0,1-1.55-1.642l-.63-11.363a1.755,1.755,0,0,1,.811-1.575,4.542,4.542,0,1,0-4.846,0,1.755,1.755,0,0,1,.811,1.575l-.63,11.363a1.75,1.75,0,0,1-1.55,1.642A33.058,33.058,0,0,0,43.357,38,1.749,1.749,0,0,1,41.1,37.93l-8.483-7.592a1.747,1.747,0,0,1-.54-1.687,4.541,4.541,0,1,0-3.427,3.428,1.738,1.738,0,0,1,1.687.54L37.931,41.1A1.75,1.75,0,0,1,38,43.357a33.058,33.058,0,0,0-6.984,16.851,1.75,1.75,0,0,1-1.642,1.55l-11.363.63a1.772,1.772,0,0,1-1.575-.811,4.542,4.542,0,1,0,0,4.846,1.758,1.758,0,0,1,1.575-.811l11.363.63a1.749,1.749,0,0,1,1.65,1.844,1.768,1.768,0,0,1-1.843,1.651L18.76,69.16a8.042,8.042,0,1,1,0-10.32l8.973-.5a36.532,36.532,0,0,1,6.625-15.985l-6-6.7a8.041,8.041,0,1,1,7.3-7.3l6.7,6a36.532,36.532,0,0,1,15.985-6.625l.5-8.973a8.042,8.042,0,1,1,10.32,0l.5,8.973a36.532,36.532,0,0,1,15.985,6.625l6.7-6a8.041,8.041,0,1,1,7.3,7.3l-6,6.7a36.532,36.532,0,0,1,6.625,15.985l8.973.5a8.042,8.042,0,1,1,0,10.32l-8.973.5a36.532,36.532,0,0,1-6.625,15.985l6,6.7a8.041,8.041,0,1,1-7.3,7.3l-6.7-6a36.532,36.532,0,0,1-15.985,6.625l-.5,8.973a8.037,8.037,0,0,1-5.16,14.2Z"/>
      <path d="M53.416,61.252A10.359,10.359,0,1,1,63.775,50.893,10.371,10.371,0,0,1,53.416,61.252Zm0-17.218a6.859,6.859,0,1,0,6.859,6.859A6.866,6.866,0,0,0,53.416,44.034Z"/>
      <path d="M51.717,86.684a8.214,8.214,0,1,1,8.214-8.213A8.223,8.223,0,0,1,51.717,86.684Zm0-12.927a4.714,4.714,0,1,0,4.714,4.714A4.72,4.72,0,0,0,51.717,73.757Z"/>
      <path d="M88,62.606a1.748,1.748,0,0,1-1.51-.864,8.878,8.878,0,0,0-2.227-2.532,1.751,1.751,0,1,1,2.145-2.767,12.382,12.382,0,0,1,3.1,3.526A1.752,1.752,0,0,1,88,62.606Z"/>
      <path d="M78.825,78.613a12.383,12.383,0,0,1-2.679-24.472,1.75,1.75,0,0,1,.754,3.418,8.883,8.883,0,1,0,10.242,11.8,1.75,1.75,0,1,1,3.276,1.23A12.441,12.441,0,0,1,78.825,78.613Z"/>
    </g>
  </g>
</svg>
