<?xml version="1.0" encoding="utf-8"?>
<!-- Generator: Adobe Illustrator 22.1.0, SVG Export Plug-In . SVG Version: 6.00 Build 0)  -->
<svg version="1.1" id="Icon_Set" xmlns="http://www.w3.org/2000/svg" xmlns:xlink="http://www.w3.org/1999/xlink" x="0px" y="0px"
	 viewBox="0 0 512 512" style="enable-background:new 0 0 512 512;" xml:space="preserve">
<style type="text/css">
	.st0{fill:#F0C48A;}
	.st1{fill:#FD919E;}
	.st2{fill:#4C4372;}
	.st3{fill:#D3E6F8;}
	.st4{fill:#A4CFF2;}
	.st5{fill:#7BABF1;}
	.st6{fill:#FFFFFF;}
	.st7{fill:#E8677D;}
	.st8{fill:none;stroke:#4C4372;stroke-width:12;stroke-linecap:round;stroke-linejoin:round;stroke-miterlimit:10;}
</style>
<g id="Forceps_3">
	<g>
		<g>
			<circle class="st0" cx="256" cy="256" r="207"/>
		</g>
	</g>
	<g>
		<g>
			<path class="st5" d="M374.541,111.715c-5.366-5.345-14.068-5.992-19.789-1.028c-0.273,0.237-0.539,0.485-0.799,0.745
				L237.525,227.861c-5.955,5.956-5.955,15.611,0,21.566c2.978,2.978,6.88,4.466,10.783,4.466s7.806-1.489,10.783-4.466
				l116.429-116.429c0.261-0.261,0.511-0.53,0.749-0.805c4.975-5.738,4.307-14.467-1.074-19.827L374.541,111.715z"/>
		</g>
		<g>
			<g>
				<path class="st4" d="M248.308,367.683c8.422,0,15.249-6.827,15.249-15.249V238.644c0-8.422-6.827-15.249-15.249-15.249
					s-15.249,6.827-15.249,15.249v113.789C233.058,360.856,239.886,367.683,248.308,367.683z"/>
			</g>
		</g>
		<g>
			<g>
				<path class="st2" d="M248.308,373.683c-11.717,0-21.25-9.532-21.25-21.249v-113.79c0-11.717,9.533-21.249,21.25-21.249
					s21.249,9.532,21.249,21.249v113.79C269.557,364.15,260.024,373.683,248.308,373.683z M248.308,229.395
					c-5.1,0-9.25,4.149-9.25,9.249v113.79c0,5.1,4.149,9.249,9.25,9.249s9.249-4.149,9.249-9.249v-113.79
					C257.557,233.544,253.408,229.395,248.308,229.395z"/>
			</g>
		</g>
		<g>
			<path class="st2" d="M248.308,259.894c-5.675,0-11.011-2.21-15.025-6.224c-4.014-4.014-6.224-9.35-6.224-15.026
				c0-5.676,2.21-11.012,6.224-15.024l116.429-116.43c0.363-0.362,0.728-0.702,1.101-1.026c7.992-6.935,20.271-6.358,27.963,1.3
				c0.001,0.001,0.002,0.002,0.003,0.003l0.654,0.652c7.717,7.687,8.32,19.989,1.37,28.006c-0.325,0.376-0.671,0.747-1.031,1.108
				L263.333,253.669C259.319,257.683,253.983,259.894,248.308,259.894z M363.941,113.298c-1.903,0-3.771,0.633-5.257,1.922
				c-0.164,0.143-0.333,0.299-0.497,0.463l-116.42,116.421c-3.606,3.606-3.606,9.475,0,13.081c1.748,1.747,4.07,2.709,6.541,2.709
				c2.471,0,4.793-0.962,6.541-2.709l116.429-116.429c0.152-0.154,0.307-0.318,0.454-0.488c2.84-3.276,2.5-8.392-0.771-11.649
				l-0.656-0.654C368.531,114.199,366.212,113.298,363.941,113.298z"/>
		</g>
		<g>
			<circle class="st1" cx="248.308" cy="238.655" r="23.653"/>
		</g>
		<g>
			<path class="st2" d="M248.308,268.308c-16.351,0-29.653-13.302-29.653-29.652s13.302-29.653,29.653-29.653
				c16.351,0,29.653,13.303,29.653,29.653S264.658,268.308,248.308,268.308z M248.308,221.002c-9.734,0-17.653,7.919-17.653,17.653
				c0,9.733,7.919,17.652,17.653,17.652c9.734,0,17.653-7.919,17.653-17.652C265.961,228.921,258.042,221.002,248.308,221.002z"/>
		</g>
		<g>
			<g>
				<path class="st4" d="M248.314,369.532c0-30.414,24.744-55.158,55.158-55.158s55.158,24.743,55.158,55.158
					s-24.744,55.158-55.158,55.158S248.314,399.946,248.314,369.532z M272.713,369.532c0,16.961,13.798,30.759,30.759,30.759
					c16.961,0,30.759-13.798,30.759-30.759c0-16.96-13.798-30.759-30.759-30.759C286.511,338.773,272.713,352.571,272.713,369.532z"
					/>
			</g>
		</g>
		<g>
			<g>
				<path class="st2" d="M303.472,430.689c-33.723,0-61.158-27.436-61.158-61.158s27.435-61.157,61.158-61.157
					s61.158,27.435,61.158,61.157S337.194,430.689,303.472,430.689z M303.472,320.374c-27.105,0-49.158,22.052-49.158,49.157
					s22.052,49.158,49.158,49.158s49.158-22.053,49.158-49.158S330.577,320.374,303.472,320.374z M303.472,406.291
					c-20.269,0-36.759-16.49-36.759-36.76c0-20.269,16.49-36.758,36.759-36.758s36.759,16.489,36.759,36.758
					C340.23,389.801,323.74,406.291,303.472,406.291z M303.472,344.773c-13.652,0-24.759,11.106-24.759,24.758
					c0,13.652,11.106,24.76,24.759,24.76s24.759-11.107,24.759-24.76C328.23,355.88,317.124,344.773,303.472,344.773z"/>
			</g>
		</g>
		<g>
			<g>
				<path class="st3" d="M137.998,369.532c0-30.414,24.744-55.158,55.158-55.158s55.158,24.743,55.158,55.158
					s-24.744,55.158-55.158,55.158S137.998,399.946,137.998,369.532z M162.397,369.532c0,16.961,13.798,30.759,30.759,30.759
					c16.961,0,30.759-13.798,30.759-30.759c0-16.96-13.798-30.759-30.759-30.759C176.195,338.773,162.397,352.571,162.397,369.532z"
					/>
			</g>
		</g>
		<g>
			<g>
				<path class="st2" d="M193.156,430.689c-33.723,0-61.158-27.436-61.158-61.158s27.436-61.157,61.158-61.157
					s61.158,27.435,61.158,61.157S226.878,430.689,193.156,430.689z M193.156,320.374c-27.106,0-49.158,22.052-49.158,49.157
					s22.052,49.158,49.158,49.158s49.158-22.053,49.158-49.158S220.262,320.374,193.156,320.374z M193.156,406.291
					c-20.269,0-36.759-16.49-36.759-36.76c0-20.269,16.49-36.758,36.759-36.758s36.759,16.489,36.759,36.758
					C229.915,389.801,213.425,406.291,193.156,406.291z M193.156,344.773c-13.652,0-24.759,11.106-24.759,24.758
					c0,13.652,11.107,24.76,24.759,24.76c13.652,0,24.759-11.107,24.759-24.76C217.915,355.88,206.808,344.773,193.156,344.773z"/>
			</g>
		</g>
	</g>
</g>
</svg>
