<?xml version="1.0" encoding="iso-8859-1"?>
<!-- Generator: Adobe Illustrator 22.0.1, SVG Export Plug-In . SVG Version: 6.00 Build 0)  -->
<svg version="1.1" xmlns="http://www.w3.org/2000/svg" xmlns:xlink="http://www.w3.org/1999/xlink" x="0px" y="0px"
	 viewBox="0 0 512 512" style="enable-background:new 0 0 512 512;" xml:space="preserve">
<g id="BULINE">
	<circle id="XMLID_4170_" style="fill:#E07083;" cx="256" cy="256" r="256"/>
</g>
<g id="Icons">
	<g id="XMLID_3209_">
		<path id="XMLID_4165_" style="fill:#DC4355;" d="M483.94,372.63c-10.74,20.97-24.3,40.26-40.16,57.37
			c-46.76,50.43-113.59,82-187.78,82s-141.02-31.57-187.78-82c-8.21-8.86-15.81-18.31-22.73-28.28
			c3.24-24.25,10.36-47.27,20.72-68.42c2.41-4.92,4.99-9.74,7.74-14.45c11.59-19.86,26.15-37.77,43.07-53.12
			c5.47-4.97,11.18-9.67,17.13-14.08c0.26-0.2,0.52-0.39,0.78-0.58c15.4-11.34,32.31-20.76,50.37-27.9
			c25.5-10.07,53.28-15.61,82.35-15.61c0.85,0,1.71,0,2.56,0.02C372.43,208.72,458.22,278.29,483.94,372.63z"/>
		<path id="XMLID_3926_" style="fill:#273277;" d="M443.78,430c-46.76,50.43-113.59,82-187.78,82s-141.02-31.57-187.78-82H443.78z"
			/>
		<g id="XMLID_3408_">
			<g id="XMLID_3422_">
				<rect id="XMLID_3438_" x="82.887" y="73.143" style="fill:#C4C4C4;" width="168.826" height="24.857"/>
				<path id="XMLID_3437_" style="fill:#FFFFFF;" d="M253.538,406.217H82.887c-9.209,0-16.674-7.465-16.674-16.674V114.674
					c0-9.209,7.465-16.674,16.674-16.674h170.651c9.209,0,16.674,7.465,16.674,16.674v274.868
					C270.212,398.751,262.747,406.217,253.538,406.217z"/>
				<path id="XMLID_3436_" style="fill:#C4C4C4;" d="M235.087,430h-133.75c-9.182,0-16.625-7.443-16.625-16.625v-7.158h167v7.158
					C251.712,422.557,244.269,430,235.087,430z"/>
				<path id="XMLID_3435_" style="fill:#AAAAAA;" d="M147.913,430h-46.58c-9.18,0-16.62-7.44-16.62-16.62v-7.16h46.58v7.16
					C131.293,422.56,138.733,430,147.913,430z"/>
				<rect id="XMLID_3434_" x="66.213" y="190.515" style="fill:#DC4355;" width="204" height="128.339"/>
				<path id="XMLID_3433_" style="fill:#D8D7D7;" d="M150.833,406.22h-67.95c-9.21,0-16.67-7.47-16.67-16.68V114.67
					c0-9.2,7.46-16.67,16.67-16.67h67.95c-9.21,0-16.68,7.47-16.68,16.67v274.87C134.153,398.75,141.622,406.22,150.833,406.22z"/>
				<rect id="XMLID_3432_" x="66.213" y="190.52" style="fill:#AF394C;" width="68.72" height="128.33"/>
				<path id="XMLID_3431_" style="fill:#DC4355;" d="M258.337,26H78.088c-6.558,0-11.875,5.317-11.875,11.875v21.322
					c0,7.702,6.244,13.947,13.947,13.947h176.107c7.702,0,13.947-6.244,13.947-13.947V37.875C270.212,31.317,264.896,26,258.337,26z
					"/>
				<path id="XMLID_3429_" style="fill:#FFFFFF;" d="M207.8,237.902h-22.5v-22.5c0-5.483-4.445-9.928-9.928-9.928h-16.143
					c-5.483,0-9.928,4.445-9.928,9.928v22.5h-22.5c-5.483,0-9.928,4.445-9.928,9.928v16.143c0,5.483,4.445,9.928,9.928,9.928h22.5
					v22.5c0,5.483,4.445,9.928,9.928,9.928h16.143c5.483,0,9.928-4.445,9.928-9.928v-22.5h22.5c5.483,0,9.928-4.445,9.928-9.928
					V247.83C217.728,242.347,213.283,237.902,207.8,237.902z"/>
				<path id="XMLID_3428_" style="fill:#983343;" d="M100.796,41.333L100.796,41.333c-4.945,0-8.955,4.009-8.955,8.954v22.855
					h17.909V50.288C109.75,45.342,105.741,41.333,100.796,41.333z"/>
				<path id="XMLID_3427_" style="fill:#983343;" d="M132.796,41.333L132.796,41.333c-4.945,0-8.954,4.009-8.954,8.954v22.855
					h17.909V50.288C141.75,45.342,137.741,41.333,132.796,41.333z"/>
				<path id="XMLID_3426_" style="fill:#983343;" d="M164.796,41.333L164.796,41.333c-4.945,0-8.954,4.009-8.954,8.954v22.855
					h17.909V50.288C173.75,45.342,169.741,41.333,164.796,41.333z"/>
				<path id="XMLID_3425_" style="fill:#983343;" d="M196.796,41.333L196.796,41.333c-4.945,0-8.954,4.009-8.954,8.954v22.855
					h17.909V50.288C205.75,45.342,201.741,41.333,196.796,41.333z"/>
				<path id="XMLID_3424_" style="fill:#983343;" d="M228.796,41.333L228.796,41.333c-4.945,0-8.954,4.009-8.954,8.954v22.855
					h17.909V50.288C237.75,45.342,233.741,41.333,228.796,41.333z"/>
				<rect id="XMLID_3423_" x="82.887" y="73.143" style="fill:#AAAAAA;" width="67.946" height="24.857"/>
			</g>
			<g id="XMLID_3418_">
				<path id="XMLID_3420_" style="fill:#AF394C;" d="M299.959,392.717v39h-32.307c-8.804,0-15.94-7.137-15.94-15.94l0-7.12
					c0-8.804,7.137-15.94,15.94-15.94H299.959z"/>
				<path id="XMLID_3419_" style="fill:#8DC1F6;" d="M299.469,431.717v-39h32.307c8.804,0,15.94,7.137,15.94,15.94v7.12
					c0,8.804-7.137,15.94-15.94,15.94H299.469z"/>
			</g>
			<g id="XMLID_3415_">
				<path id="XMLID_3417_" style="fill:#AF394C;" d="M173.505,464.638v-39h32.307c8.804,0,15.94,7.137,15.94,15.94v7.12
					c0,8.804-7.137,15.94-15.94,15.94H173.505z"/>
				<path id="XMLID_3416_" style="fill:#8DC1F6;" d="M173.996,425.638v39h-32.307c-8.804,0-15.94-7.137-15.94-15.94v-7.12
					c0-8.804,7.137-15.94,15.94-15.94H173.996z"/>
			</g>
			<g id="XMLID_3412_">
				<circle id="XMLID_3414_" style="fill:#F8E78F;" cx="397.5" cy="406.22" r="33"/>
				<path id="XMLID_3413_" style="fill:#EBB141;" d="M420.527,413.213h-46.055c-4.035,0-7.306-3.271-7.306-7.306v0
					c0-4.035,3.271-7.306,7.306-7.306h46.055c4.035,0,7.306,3.271,7.306,7.306v0C427.833,409.942,424.562,413.213,420.527,413.213z"
					/>
			</g>
			<g id="XMLID_3409_">
				<circle id="XMLID_3411_" style="fill:#FFFFFF;" cx="278.5" cy="471.208" r="33"/>
				<path id="XMLID_3410_" style="fill:#C4C4C4;" d="M301.527,478.201h-46.055c-4.035,0-7.306-3.271-7.306-7.306l0,0
					c0-4.035,3.271-7.306,7.306-7.306h46.055c4.035,0,7.306,3.271,7.306,7.306l0,0C308.833,474.93,305.562,478.201,301.527,478.201z
					"/>
			</g>
		</g>
	</g>
</g>
</svg>
